<?xml version="1.0" standalone="no"?>
<!DOCTYPE svg PUBLIC "-//W3C//DTD SVG 20010904//EN"
 "http://www.w3.org/TR/2001/REC-SVG-20010904/DTD/svg10.dtd">
<svg version="1.0" xmlns="http://www.w3.org/2000/svg"
 width="440.000000pt" height="440.000000pt" viewBox="0 0 440.000000 440.000000"
 preserveAspectRatio="xMidYMid meet">
<metadata>
Created by potrace 1.14, written by Peter Selinger 2001-2017
</metadata>
<g transform="translate(0.000000,440.000000) scale(0.100000,-0.100000)"
fill="#000000" stroke="none">
<path d="M2974 2848 c-11 -12 -27 -18 -40 -15 -15 3 -50 -16 -111 -59 -48 -35
-95 -68 -103 -74 -8 -6 -84 -60 -169 -120 l-154 -110 -101 -1 c-56 -1 -135 -3
-176 -4 -41 -2 -190 -5 -330 -9 -501 -11 -735 -19 -739 -22 -2 -2 473 -4 1056
-4 l1061 0 6 23 c3 12 6 26 6 30 0 5 -83 7 -185 4 -102 -3 -185 -2 -185 2 0 4
30 42 66 85 58 67 70 76 93 72 14 -3 73 -12 131 -20 58 -8 193 -27 302 -42
l196 -28 -52 -105 c-29 -58 -74 -151 -100 -206 -44 -93 -52 -103 -105 -138
-40 -26 -69 -37 -95 -37 -21 0 -62 -13 -96 -30 -42 -21 -68 -28 -85 -24 -34 8
-31 -2 10 -43 27 -27 58 -42 141 -69 123 -39 184 -43 232 -14 31 19 36 30 34
79 -1 16 14 37 49 69 27 25 48 50 46 56 -5 12 37 102 59 126 7 8 43 80 79 159
45 98 63 147 56 154 -7 7 1 26 24 57 19 26 35 52 35 56 0 5 -29 40 -64 78
l-63 69 -11 -32 c-12 -34 -8 -33 -102 -16 -14 2 -43 7 -65 10 -49 6 -70 11
-110 23 -16 5 -100 19 -185 32 -85 13 -162 29 -170 36 -27 23 -67 24 -86 2z
m139 -78 c100 -22 198 -44 217 -49 19 -5 92 -21 163 -37 70 -15 127 -31 127
-35 0 -6 -62 4 -160 26 -14 3 -61 11 -105 19 -44 8 -152 28 -240 45 -144 27
-162 29 -182 15 -13 -8 -23 -19 -23 -25 0 -6 -6 -9 -14 -6 -10 4 -55 -36 -126
-110 l-111 -116 -75 -3 c-41 -1 -74 1 -73 4 0 4 56 50 125 102 68 52 136 105
152 117 96 76 118 92 130 92 8 1 96 -17 195 -39z m292 -25 c39 -2 111 -11 160
-19 50 -9 94 -16 98 -16 4 0 3 -9 -3 -21 -13 -23 -22 -23 -155 9 -44 11 -113
27 -152 37 -40 9 -73 19 -73 22 0 2 12 2 28 -1 15 -4 59 -8 97 -11z m-515 -35
c0 -5 -5 -10 -11 -10 -5 0 -7 5 -4 10 3 6 8 10 11 10 2 0 4 -4 4 -10z m893
-29 c15 -16 27 -32 27 -36 0 -4 -37 -58 -82 -119 -46 -62 -120 -164 -165 -226
-46 -63 -83 -111 -83 -108 0 4 68 104 150 224 83 120 150 223 150 229 0 7 -9
20 -20 30 -20 18 -26 35 -12 35 4 0 19 -13 35 -29z m-129 -338 c-24 -54 -44
-104 -44 -110 0 -7 -12 -37 -27 -68 l-27 -55 -28 27 c-15 15 -28 31 -28 36 0
8 58 97 70 107 3 3 30 40 60 83 29 42 57 77 61 77 4 0 -12 -44 -37 -97z m-147
-227 l22 -23 -33 -32 c-33 -32 -33 -32 -40 -9 -9 36 -7 63 6 76 16 16 20 15
45 -12z"/>
<path d="M871 2361 c-5 -9 -23 -65 -41 -126 -18 -60 -38 -129 -45 -152 l-13
-41 46 -4 c55 -4 66 5 82 72 l12 50 110 0 c109 0 110 0 105 -22 -11 -47 -15
-63 -22 -80 -6 -15 -2 -18 21 -19 16 -1 40 -2 54 -2 24 -2 27 5 68 148 23 83
47 158 52 168 11 19 13 18 -60 21 l-41 1 -17 -60 -18 -60 -107 -1 c-59 -1
-109 1 -111 5 -2 3 4 30 14 59 16 47 16 52 1 53 -9 0 -31 2 -49 3 -22 2 -36
-3 -41 -13z"/>
<path d="M1360 2370 c-4 -3 -27 -70 -50 -150 -23 -80 -44 -153 -47 -162 -6
-20 -16 -19 172 -19 208 0 192 -2 199 25 3 13 8 31 12 39 4 12 -15 14 -123 13
l-128 -1 0 25 0 25 127 3 128 3 8 32 8 32 -123 5 -122 5 12 25 c12 25 14 25
139 25 69 0 128 2 131 5 2 3 7 20 10 38 5 22 3 32 -6 33 -44 4 -340 3 -347 -1z
m71 -47 c13 -16 12 -17 -3 -4 -10 7 -18 15 -18 17 0 8 8 3 21 -13z"/>
<path d="M1940 2372 c-8 -3 -22 -12 -30 -21 -38 -40 -252 -300 -254 -307 0 -5
24 -7 54 -6 46 3 59 7 77 30 21 25 26 26 125 27 101 0 102 0 108 -25 6 -27 40
-38 96 -32 l30 4 -40 161 c-22 89 -40 163 -41 164 -3 5 -111 9 -125 5z m39
-124 c5 -18 11 -43 15 -55 7 -22 5 -23 -53 -23 -34 0 -61 3 -61 8 0 4 18 26
40 50 22 24 40 48 40 54 0 20 12 0 19 -34z"/>
<path d="M2140 2367 c0 -4 16 -72 36 -150 20 -78 37 -149 38 -157 2 -11 20
-16 72 -18 l69 -3 135 160 c74 88 136 164 137 168 4 11 -107 7 -117 -4 -4 -4
-48 -59 -99 -120 -51 -62 -94 -113 -96 -113 -2 0 -16 54 -32 120 -26 113 -29
120 -53 121 -73 4 -90 4 -90 -4z"/>
<path d="M2670 2372 c-8 -3 61 -144 96 -195 9 -15 8 -30 -6 -78 l-18 -59 54 0
53 0 17 58 c9 31 26 65 38 75 12 10 50 44 85 75 35 31 79 70 97 86 19 15 32
31 30 35 -4 5 -47 6 -103 2 -10 -1 -49 -31 -87 -66 -38 -36 -70 -64 -72 -63
-1 2 -17 32 -36 68 l-33 64 -53 1 c-28 0 -56 -1 -62 -3z"/>
<path d="M805 1992 c-58 -4 -84 -20 -91 -58 -8 -42 2 -71 29 -86 27 -15 791
-22 848 -7 36 9 59 39 59 78 0 24 -44 71 -67 72 -64 2 -745 3 -778 1z m345
-34 c-22 -13 -28 -23 -26 -47 2 -33 2 -33 31 -49 15 -9 -24 -11 -169 -12 -180
0 -187 1 -168 18 34 28 33 71 -2 92 -23 14 -7 15 168 15 187 1 193 0 166 -17z
m414 10 c-3 -5 -9 -6 -14 -3 -10 6 -33 -21 -37 -44 -4 -25 18 -60 41 -64 12
-2 -67 -5 -174 -5 -136 -1 -190 2 -178 9 28 16 39 44 28 73 -5 14 -16 26 -25
26 -8 0 -15 3 -15 8 0 4 85 7 189 7 104 1 187 -3 185 -7z m-820 -23 c-9 -14
-18 -25 -21 -25 -5 0 5 18 20 38 17 22 18 13 1 -13z m886 -20 c0 -5 -5 -3 -10
5 -5 8 -10 20 -10 25 0 6 5 3 10 -5 5 -8 10 -19 10 -25z m-857 -74 c-4 -7 -34
21 -45 43 -7 14 -2 11 18 -9 16 -16 28 -32 27 -34z m843 21 c-15 -15 -15 -15
-4 10 7 15 15 23 17 17 2 -6 -4 -18 -13 -27z"/>
<path d="M1710 1913 l0 -53 40 0 c22 0 40 5 40 10 0 6 -11 10 -24 10 -34 0
-42 18 -11 22 30 3 34 23 6 23 -11 0 -23 3 -27 8 -7 6 -1 8 35 11 8 1 16 7 19
14 2 8 -9 11 -37 10 l-41 -1 0 -54z"/>
<path d="M1862 1954 c-12 -8 -22 -26 -22 -39 0 -36 26 -55 71 -53 l39 1 0 44
c0 37 -4 45 -26 53 -33 13 -36 13 -62 -6z m66 -39 c3 -11 0 -15 -7 -11 -6 4
-16 4 -22 0 -8 -4 -7 -9 2 -15 11 -7 11 -9 -2 -9 -25 0 -38 22 -28 47 7 19 12
21 31 14 13 -4 25 -16 26 -26z"/>
<path d="M2007 1963 c-6 -11 -1 -79 8 -92 3 -6 19 -11 35 -11 35 0 50 23 50
74 0 27 -3 34 -15 30 -10 -4 -15 -20 -15 -46 0 -32 -3 -39 -17 -36 -13 2 -19
15 -21 46 -3 38 -14 54 -25 35z"/>
<path d="M2154 1915 c0 -33 4 -54 11 -52 13 5 13 99 -1 104 -6 2 -10 -17 -10
-52z"/>
<path d="M2238 1963 c-9 -20 -1 -97 10 -101 6 -2 12 3 12 12 0 9 8 16 18 16
41 0 57 51 23 70 -23 12 -58 13 -63 3z m47 -46 c-20 -11 -29 -3 -21 19 5 13 9
14 22 3 14 -11 14 -13 -1 -22z"/>
<path d="M2370 1915 c0 -30 5 -55 10 -55 9 0 15 28 11 55 -1 6 6 1 14 -10 15
-19 17 -19 29 -2 19 24 23 21 18 -13 -3 -22 0 -30 10 -30 11 0 15 12 14 49 -1
61 -12 73 -36 41 l-19 -25 -16 23 c-25 35 -35 26 -35 -33z"/>
<path d="M2539 1961 c-1 -3 -2 -27 -3 -53 l-2 -48 44 0 c26 0 41 4 37 10 -3 6
-17 10 -31 10 -13 0 -24 5 -24 10 0 6 12 10 26 10 16 0 24 5 21 13 -2 6 -14
11 -25 11 -12 -1 -22 4 -22 11 0 7 10 11 25 10 16 -2 25 2 25 11 0 9 -11 13
-35 12 -19 -1 -36 -4 -36 -7z"/>
<path d="M2670 1915 c0 -30 5 -55 10 -55 6 0 10 14 10 32 l0 32 30 -34 c35
-42 47 -32 42 34 -5 52 -22 63 -22 14 l-1 -33 -27 33 c-15 18 -30 32 -34 32
-5 0 -8 -25 -8 -55z"/>
<path d="M2810 1959 c0 -5 8 -12 17 -18 11 -6 18 -22 18 -42 0 -50 23 -48 27
3 2 28 7 42 16 41 6 -2 12 3 12 11 0 10 -13 14 -45 13 -25 0 -45 -4 -45 -8z"/>
</g>
</svg>
